<svg xmlns="http://www.w3.org/2000/svg" viewBox="0 0 128 128">
  <rect width="128" height="128" rx="28" fill="#6c584c"/>
  <path d="M64 0v128M0 64h128" stroke="#fff" stroke-opacity=".18" stroke-width="8"/>
  <path d="M28 118q36-31 72 0z" fill="#101014"/>
  <circle cx="64" cy="67" r="34" fill="#b87955"/>
  <path d="M35 59q3-31 29-31t29 31q-25-17-58 0Z" fill="#9d4edd"/>
  <circle cx="38" cy="64" r="8" fill="none" stroke="#101014" stroke-width="4"/><circle cx="90" cy="64" r="8" fill="none" stroke="#101014" stroke-width="4"/><path d="M46 64h36" stroke="#101014" stroke-width="4"/>
  <path d="M44 61q4 4 8 0M76 61q4 4 8 0" stroke="#101014" stroke-width="6" stroke-linecap="round"/>
  <path d="M58 82q10 4 20 0" fill="none" stroke="#101014" stroke-width="5" stroke-linecap="round"/>
  <circle cx="43" cy="75" r="5" fill="#ef476f" opacity=".45"/>
  <circle cx="85" cy="75" r="5" fill="#ef476f" opacity=".45"/>
</svg>
