<svg xmlns="http://www.w3.org/2000/svg" viewBox="0 0 128 128">
  <rect width="128" height="128" rx="28" fill="#ffb703"/>
  <path d="M12 34q24-18 48 0t48 0M12 94q24-18 48 0t48 0" fill="none" stroke="#fff" stroke-opacity=".22" stroke-width="8"/>
  <path d="M28 118q36-31 72 0z" fill="#e76f51"/>
  <circle cx="64" cy="67" r="34" fill="#f1d1b5"/>
  <path d="M35 59q3-31 29-31t29 31q-25-17-58 0Z" fill="#5c4033"/>
  <path d="M39 45q25-34 50 0q-24-10-50 0Z" fill="#5c4033"/><circle cx="87" cy="38" r="7" fill="#fff7ed"/>
  <path d="M47 61h1M79 61h1" stroke="#101014" stroke-width="6" stroke-linecap="round"/>
  <path d="M58 82h20" fill="none" stroke="#101014" stroke-width="5" stroke-linecap="round"/>
  <circle cx="43" cy="75" r="5" fill="#ef476f" opacity=".45"/>
  <circle cx="85" cy="75" r="5" fill="#ef476f" opacity=".45"/>
</svg>
